<svg id="Layer_1" data-name="Layer 1" xmlns="http://www.w3.org/2000/svg" xmlns:xlink="http://www.w3.org/1999/xlink" viewBox="0 0 32 24"><defs><mask id="mask" x="0" y="0" width="32" height="24" maskUnits="userSpaceOnUse"><g transform="translate(0 0)"><g id="mask0"><rect width="32" height="24" fill="#fff"/></g></g></mask><mask id="mask-2" x="0" y="0" width="32" height="24" maskUnits="userSpaceOnUse"><g transform="translate(0 0)"><g id="mask1"><path d="M0,0V24H32V0Z" fill="#fff" fill-rule="evenodd"/></g></g></mask></defs><g mask="url(#mask)"><path d="M0,0V24H32V0Z" transform="translate(0 0)" fill="#f7fcff" fill-rule="evenodd"/><g mask="url(#mask-2)"><path d="M0,0V24H32V0Z" transform="translate(0 0)" fill="#3d58db" fill-rule="evenodd"/><path d="M15.05,3.54l-.23,1.31L16,4.23l1.18.62L17,3.54l.95-1H16.59L16,1.23l-.59,1.28H14.1Zm0,17.37-.23,1.3L16,21.6l1.18.61L17,20.91l.95-1H16.59L16,18.6l-.59,1.28H14.1ZM5.57,13.62l.23-1.31-1-1H6.16L6.75,10l.59,1.29H8.65l-1,1,.22,1.31L6.75,13Zm2.17,2.83-.23,1.31,1.18-.62,1.17.62-.22-1.31.95-1H9.27l-.58-1.29L8.1,15.43H6.78Zm14.41,1.31.22-1.31-.95-1h1.32l.58-1.29.59,1.29h1.32l-.95,1,.22,1.31-1.18-.62ZM7.74,8.06,7.51,9.37l1.18-.62,1.17.62L9.64,8.06l.95-1H9.27L8.69,5.75,8.1,7H6.78ZM22.15,9.37l.22-1.31-.95-1h1.32l.58-1.29L23.91,7h1.32l-.95,1,.22,1.31-1.18-.62ZM10.66,19.78l-.23,1.31,1.18-.62,1.17.62-.22-1.31.95-1H12.2l-.59-1.29L11,18.76H9.71Zm8.66,1.31.23-1.31-.95-1h1.31l.59-1.29.59,1.29H22.4l-.95,1,.23,1.31-1.18-.62ZM10.43,6l1.18-.61L12.78,6l-.22-1.3.95-1H12.2l-.59-1.28L11,3.65H9.71l.95,1Zm8.89,0,.23-1.3-.95-1h1.31l.59-1.28.59,1.28H22.4l-.95,1L21.68,6,20.5,5.37Zm4.9,6.21L24,13.5l1.18-.62,1.17.62-.22-1.31.95-1H25.76l-.58-1.29-.59,1.29H23.27Z" transform="translate(0 0)" fill="#ffd018" fill-rule="evenodd"/></g></g></svg>